<mxfile host="app.diagrams.net" modified="2022-05-06T16:16:16.792Z" agent="5.0 (Windows NT 10.0; Win64; x64) AppleWebKit/537.36 (KHTML, like Gecko) Chrome/101.0.4951.54 Safari/537.36" etag="eFv6w0G8yWstQ6a_vL7J" version="17.1.3" type="github">
  <diagram id="BPSuU6ewc0O4jv7Db-_E" name="Page-1">
    <mxGraphModel dx="1160" dy="613" grid="0" gridSize="10" guides="1" tooltips="1" connect="1" arrows="1" fold="1" page="0" pageScale="1" pageWidth="300" pageHeight="70" background="none" math="0" shadow="1">
      <root>
        <mxCell id="0" />
        <mxCell id="1" parent="0" />
        <mxCell id="5bSCLhhGmZURMwcGHP59-69" value="" style="group" vertex="1" connectable="0" parent="1">
          <mxGeometry x="29" y="360" width="843" height="594" as="geometry" />
        </mxCell>
        <mxCell id="5bSCLhhGmZURMwcGHP59-1" value="&lt;font style=&quot;font-size: 14px&quot;&gt;&lt;i&gt;R/W(I/O)&lt;/i&gt;&lt;/font&gt;" style="whiteSpace=wrap;html=1;aspect=fixed;" vertex="1" parent="5bSCLhhGmZURMwcGHP59-69">
          <mxGeometry x="375" y="99" width="80" height="80" as="geometry" />
        </mxCell>
        <mxCell id="5bSCLhhGmZURMwcGHP59-5" value="" style="group" vertex="1" connectable="0" parent="5bSCLhhGmZURMwcGHP59-69">
          <mxGeometry x="529" y="76" width="82" height="103" as="geometry" />
        </mxCell>
        <mxCell id="5bSCLhhGmZURMwcGHP59-2" value="&lt;font style=&quot;font-size: 14px&quot;&gt;&lt;i&gt;Decoder&lt;/i&gt;&lt;/font&gt;" style="whiteSpace=wrap;html=1;aspect=fixed;fontSize=14;" vertex="1" parent="5bSCLhhGmZURMwcGHP59-5">
          <mxGeometry x="2" y="23" width="80" height="80" as="geometry" />
        </mxCell>
        <mxCell id="5bSCLhhGmZURMwcGHP59-3" value="Control Unit" style="text;html=1;strokeColor=none;fillColor=none;align=center;verticalAlign=middle;whiteSpace=wrap;rounded=0;fontSize=14;" vertex="1" parent="5bSCLhhGmZURMwcGHP59-5">
          <mxGeometry width="82" height="30" as="geometry" />
        </mxCell>
        <mxCell id="5bSCLhhGmZURMwcGHP59-23" style="edgeStyle=orthogonalEdgeStyle;rounded=0;orthogonalLoop=1;jettySize=auto;html=1;exitX=1;exitY=0.25;exitDx=0;exitDy=0;entryX=0;entryY=0.25;entryDx=0;entryDy=0;fontSize=18;" edge="1" parent="5bSCLhhGmZURMwcGHP59-69" source="5bSCLhhGmZURMwcGHP59-1" target="5bSCLhhGmZURMwcGHP59-2">
          <mxGeometry relative="1" as="geometry" />
        </mxCell>
        <mxCell id="5bSCLhhGmZURMwcGHP59-24" style="edgeStyle=orthogonalEdgeStyle;rounded=0;orthogonalLoop=1;jettySize=auto;html=1;exitX=1;exitY=0.75;exitDx=0;exitDy=0;entryX=0;entryY=0.75;entryDx=0;entryDy=0;fontSize=18;" edge="1" parent="5bSCLhhGmZURMwcGHP59-69" source="5bSCLhhGmZURMwcGHP59-1" target="5bSCLhhGmZURMwcGHP59-2">
          <mxGeometry relative="1" as="geometry" />
        </mxCell>
        <mxCell id="5bSCLhhGmZURMwcGHP59-67" style="edgeStyle=orthogonalEdgeStyle;rounded=0;orthogonalLoop=1;jettySize=auto;html=1;exitX=1;exitY=0.5;exitDx=0;exitDy=0;entryX=0;entryY=0.5;entryDx=0;entryDy=0;fontSize=18;" edge="1" parent="5bSCLhhGmZURMwcGHP59-69" source="5bSCLhhGmZURMwcGHP59-22" target="5bSCLhhGmZURMwcGHP59-1">
          <mxGeometry relative="1" as="geometry" />
        </mxCell>
        <mxCell id="5bSCLhhGmZURMwcGHP59-22" value="&lt;i&gt;Multi&lt;br&gt;plexer&lt;/i&gt;" style="whiteSpace=wrap;html=1;aspect=fixed;fontSize=18;" vertex="1" parent="5bSCLhhGmZURMwcGHP59-69">
          <mxGeometry x="221" y="99" width="80" height="80" as="geometry" />
        </mxCell>
        <mxCell id="5bSCLhhGmZURMwcGHP59-6" value="" style="rounded=0;whiteSpace=wrap;html=1;fontSize=14;" vertex="1" parent="5bSCLhhGmZURMwcGHP59-69">
          <mxGeometry x="533" y="205" width="310" height="382" as="geometry" />
        </mxCell>
        <mxCell id="5bSCLhhGmZURMwcGHP59-7" value="&lt;font style=&quot;font-size: 18px&quot;&gt;&lt;i&gt;&lt;b&gt;Processor&lt;/b&gt;&lt;/i&gt;&lt;/font&gt;" style="text;html=1;strokeColor=none;fillColor=none;align=center;verticalAlign=middle;whiteSpace=wrap;rounded=0;fontSize=14;" vertex="1" parent="5bSCLhhGmZURMwcGHP59-69">
          <mxGeometry x="587" y="253" width="60" height="30" as="geometry" />
        </mxCell>
        <mxCell id="5bSCLhhGmZURMwcGHP59-8" value="&lt;i&gt;Register&lt;br&gt;Rn&lt;/i&gt;" style="rounded=0;whiteSpace=wrap;html=1;fontSize=18;" vertex="1" parent="5bSCLhhGmZURMwcGHP59-69">
          <mxGeometry x="689" y="230" width="123" height="76" as="geometry" />
        </mxCell>
        <mxCell id="5bSCLhhGmZURMwcGHP59-9" value="&lt;i&gt;Counter&lt;/i&gt;" style="rounded=0;whiteSpace=wrap;html=1;fontSize=18;" vertex="1" parent="5bSCLhhGmZURMwcGHP59-69">
          <mxGeometry x="559" y="366" width="120" height="60" as="geometry" />
        </mxCell>
        <mxCell id="5bSCLhhGmZURMwcGHP59-10" value="&lt;i&gt;Comparator&lt;/i&gt;" style="rounded=0;whiteSpace=wrap;html=1;fontSize=18;" vertex="1" parent="5bSCLhhGmZURMwcGHP59-69">
          <mxGeometry x="700" y="366" width="120" height="60" as="geometry" />
        </mxCell>
        <mxCell id="5bSCLhhGmZURMwcGHP59-40" style="edgeStyle=orthogonalEdgeStyle;rounded=0;orthogonalLoop=1;jettySize=auto;html=1;exitX=0.5;exitY=0;exitDx=0;exitDy=0;entryX=0.5;entryY=1;entryDx=0;entryDy=0;fontSize=18;" edge="1" parent="5bSCLhhGmZURMwcGHP59-69" source="5bSCLhhGmZURMwcGHP59-11" target="5bSCLhhGmZURMwcGHP59-9">
          <mxGeometry relative="1" as="geometry" />
        </mxCell>
        <mxCell id="5bSCLhhGmZURMwcGHP59-11" value="&lt;i&gt;Adder&lt;/i&gt;" style="rounded=0;whiteSpace=wrap;html=1;fontSize=18;" vertex="1" parent="5bSCLhhGmZURMwcGHP59-69">
          <mxGeometry x="559" y="488" width="120" height="60" as="geometry" />
        </mxCell>
        <mxCell id="5bSCLhhGmZURMwcGHP59-14" value="" style="rounded=0;whiteSpace=wrap;html=1;fontSize=18;" vertex="1" parent="5bSCLhhGmZURMwcGHP59-69">
          <mxGeometry y="198" width="287" height="396" as="geometry" />
        </mxCell>
        <mxCell id="5bSCLhhGmZURMwcGHP59-16" value="&lt;span style=&quot;font-size: 18px&quot;&gt;&lt;b&gt;&lt;i&gt;Memory&lt;/i&gt;&lt;/b&gt;&lt;/span&gt;" style="text;html=1;strokeColor=none;fillColor=none;align=center;verticalAlign=middle;whiteSpace=wrap;rounded=0;fontSize=14;" vertex="1" parent="5bSCLhhGmZURMwcGHP59-69">
          <mxGeometry x="176" y="223" width="60" height="30" as="geometry" />
        </mxCell>
        <mxCell id="5bSCLhhGmZURMwcGHP59-17" value="&lt;i&gt;RAM&lt;/i&gt;" style="rounded=0;whiteSpace=wrap;html=1;fontSize=18;" vertex="1" parent="5bSCLhhGmZURMwcGHP59-69">
          <mxGeometry x="150" y="388" width="115" height="170" as="geometry" />
        </mxCell>
        <mxCell id="5bSCLhhGmZURMwcGHP59-34" style="edgeStyle=orthogonalEdgeStyle;rounded=0;orthogonalLoop=1;jettySize=auto;html=1;exitX=0.5;exitY=1;exitDx=0;exitDy=0;entryX=0.5;entryY=0;entryDx=0;entryDy=0;fontSize=18;" edge="1" parent="5bSCLhhGmZURMwcGHP59-69" source="5bSCLhhGmZURMwcGHP59-8" target="5bSCLhhGmZURMwcGHP59-10">
          <mxGeometry relative="1" as="geometry" />
        </mxCell>
        <mxCell id="5bSCLhhGmZURMwcGHP59-35" style="edgeStyle=orthogonalEdgeStyle;rounded=0;orthogonalLoop=1;jettySize=auto;html=1;exitX=0.5;exitY=1;exitDx=0;exitDy=0;entryX=1;entryY=0.5;entryDx=0;entryDy=0;fontSize=18;" edge="1" parent="5bSCLhhGmZURMwcGHP59-69" source="5bSCLhhGmZURMwcGHP59-10" target="5bSCLhhGmZURMwcGHP59-11">
          <mxGeometry relative="1" as="geometry" />
        </mxCell>
        <mxCell id="5bSCLhhGmZURMwcGHP59-18" value="&lt;i&gt;Multi&lt;br&gt;plexer&lt;/i&gt;" style="rounded=0;whiteSpace=wrap;html=1;fontSize=18;" vertex="1" parent="5bSCLhhGmZURMwcGHP59-69">
          <mxGeometry x="147.5" y="297" width="120" height="60" as="geometry" />
        </mxCell>
        <mxCell id="5bSCLhhGmZURMwcGHP59-58" style="edgeStyle=orthogonalEdgeStyle;rounded=0;orthogonalLoop=1;jettySize=auto;html=1;exitX=0.75;exitY=0;exitDx=0;exitDy=0;entryX=0.75;entryY=1;entryDx=0;entryDy=0;fontSize=18;" edge="1" parent="5bSCLhhGmZURMwcGHP59-69" source="5bSCLhhGmZURMwcGHP59-17" target="5bSCLhhGmZURMwcGHP59-18">
          <mxGeometry relative="1" as="geometry" />
        </mxCell>
        <mxCell id="5bSCLhhGmZURMwcGHP59-59" style="edgeStyle=orthogonalEdgeStyle;rounded=0;orthogonalLoop=1;jettySize=auto;html=1;exitX=0.5;exitY=0;exitDx=0;exitDy=0;entryX=0.5;entryY=1;entryDx=0;entryDy=0;fontSize=18;" edge="1" parent="5bSCLhhGmZURMwcGHP59-69" source="5bSCLhhGmZURMwcGHP59-17" target="5bSCLhhGmZURMwcGHP59-18">
          <mxGeometry relative="1" as="geometry" />
        </mxCell>
        <mxCell id="5bSCLhhGmZURMwcGHP59-63" style="edgeStyle=orthogonalEdgeStyle;rounded=0;orthogonalLoop=1;jettySize=auto;html=1;exitX=0.75;exitY=0;exitDx=0;exitDy=0;entryX=0;entryY=0.75;entryDx=0;entryDy=0;fontSize=18;" edge="1" parent="5bSCLhhGmZURMwcGHP59-69" source="5bSCLhhGmZURMwcGHP59-19" target="5bSCLhhGmZURMwcGHP59-22">
          <mxGeometry relative="1" as="geometry" />
        </mxCell>
        <mxCell id="5bSCLhhGmZURMwcGHP59-64" style="edgeStyle=orthogonalEdgeStyle;rounded=0;orthogonalLoop=1;jettySize=auto;html=1;exitX=0.5;exitY=0;exitDx=0;exitDy=0;entryX=0;entryY=0.5;entryDx=0;entryDy=0;fontSize=18;" edge="1" parent="5bSCLhhGmZURMwcGHP59-69" source="5bSCLhhGmZURMwcGHP59-19" target="5bSCLhhGmZURMwcGHP59-22">
          <mxGeometry relative="1" as="geometry" />
        </mxCell>
        <mxCell id="5bSCLhhGmZURMwcGHP59-65" style="edgeStyle=orthogonalEdgeStyle;rounded=0;orthogonalLoop=1;jettySize=auto;html=1;exitX=0.25;exitY=0;exitDx=0;exitDy=0;entryX=0;entryY=0.25;entryDx=0;entryDy=0;fontSize=18;" edge="1" parent="5bSCLhhGmZURMwcGHP59-69" source="5bSCLhhGmZURMwcGHP59-19" target="5bSCLhhGmZURMwcGHP59-22">
          <mxGeometry relative="1" as="geometry" />
        </mxCell>
        <mxCell id="5bSCLhhGmZURMwcGHP59-66" style="edgeStyle=orthogonalEdgeStyle;rounded=0;orthogonalLoop=1;jettySize=auto;html=1;exitX=0;exitY=0;exitDx=0;exitDy=0;entryX=0;entryY=0;entryDx=0;entryDy=0;fontSize=18;" edge="1" parent="5bSCLhhGmZURMwcGHP59-69" source="5bSCLhhGmZURMwcGHP59-19" target="5bSCLhhGmZURMwcGHP59-22">
          <mxGeometry relative="1" as="geometry" />
        </mxCell>
        <mxCell id="5bSCLhhGmZURMwcGHP59-19" value="&lt;i&gt;Demulti&lt;br&gt;plexer&lt;/i&gt;" style="whiteSpace=wrap;html=1;aspect=fixed;fontSize=18;" vertex="1" parent="5bSCLhhGmZURMwcGHP59-69">
          <mxGeometry x="36" y="297" width="80" height="80" as="geometry" />
        </mxCell>
        <mxCell id="5bSCLhhGmZURMwcGHP59-60" style="edgeStyle=orthogonalEdgeStyle;rounded=0;orthogonalLoop=1;jettySize=auto;html=1;exitX=0.25;exitY=0;exitDx=0;exitDy=0;entryX=0.25;entryY=1;entryDx=0;entryDy=0;fontSize=18;" edge="1" parent="5bSCLhhGmZURMwcGHP59-69" source="5bSCLhhGmZURMwcGHP59-17" target="5bSCLhhGmZURMwcGHP59-18">
          <mxGeometry relative="1" as="geometry" />
        </mxCell>
        <mxCell id="5bSCLhhGmZURMwcGHP59-29" style="edgeStyle=orthogonalEdgeStyle;rounded=0;orthogonalLoop=1;jettySize=auto;html=1;exitX=1;exitY=0.25;exitDx=0;exitDy=0;entryX=0.75;entryY=0;entryDx=0;entryDy=0;fontSize=18;" edge="1" parent="5bSCLhhGmZURMwcGHP59-69" source="5bSCLhhGmZURMwcGHP59-2" target="5bSCLhhGmZURMwcGHP59-8">
          <mxGeometry relative="1" as="geometry" />
        </mxCell>
        <mxCell id="5bSCLhhGmZURMwcGHP59-61" style="edgeStyle=orthogonalEdgeStyle;rounded=0;orthogonalLoop=1;jettySize=auto;html=1;exitX=0;exitY=0;exitDx=0;exitDy=0;entryX=0;entryY=1;entryDx=0;entryDy=0;fontSize=18;" edge="1" parent="5bSCLhhGmZURMwcGHP59-69" source="5bSCLhhGmZURMwcGHP59-17" target="5bSCLhhGmZURMwcGHP59-18">
          <mxGeometry relative="1" as="geometry" />
        </mxCell>
        <mxCell id="5bSCLhhGmZURMwcGHP59-30" style="edgeStyle=orthogonalEdgeStyle;rounded=0;orthogonalLoop=1;jettySize=auto;html=1;exitX=1;exitY=0.5;exitDx=0;exitDy=0;entryX=0.5;entryY=0;entryDx=0;entryDy=0;fontSize=18;" edge="1" parent="5bSCLhhGmZURMwcGHP59-69" source="5bSCLhhGmZURMwcGHP59-2" target="5bSCLhhGmZURMwcGHP59-8">
          <mxGeometry relative="1" as="geometry" />
        </mxCell>
        <mxCell id="5bSCLhhGmZURMwcGHP59-62" style="edgeStyle=orthogonalEdgeStyle;rounded=0;orthogonalLoop=1;jettySize=auto;html=1;exitX=0;exitY=0.5;exitDx=0;exitDy=0;entryX=0.5;entryY=1;entryDx=0;entryDy=0;fontSize=18;" edge="1" parent="5bSCLhhGmZURMwcGHP59-69" source="5bSCLhhGmZURMwcGHP59-18" target="5bSCLhhGmZURMwcGHP59-19">
          <mxGeometry relative="1" as="geometry" />
        </mxCell>
        <mxCell id="5bSCLhhGmZURMwcGHP59-31" style="edgeStyle=orthogonalEdgeStyle;rounded=0;orthogonalLoop=1;jettySize=auto;html=1;exitX=1;exitY=0.75;exitDx=0;exitDy=0;entryX=0.25;entryY=0;entryDx=0;entryDy=0;fontSize=18;" edge="1" parent="5bSCLhhGmZURMwcGHP59-69" source="5bSCLhhGmZURMwcGHP59-2" target="5bSCLhhGmZURMwcGHP59-8">
          <mxGeometry relative="1" as="geometry" />
        </mxCell>
        <mxCell id="5bSCLhhGmZURMwcGHP59-33" style="edgeStyle=orthogonalEdgeStyle;rounded=0;orthogonalLoop=1;jettySize=auto;html=1;exitX=1;exitY=1;exitDx=0;exitDy=0;entryX=0;entryY=0;entryDx=0;entryDy=0;fontSize=18;" edge="1" parent="5bSCLhhGmZURMwcGHP59-69" source="5bSCLhhGmZURMwcGHP59-2" target="5bSCLhhGmZURMwcGHP59-8">
          <mxGeometry relative="1" as="geometry">
            <Array as="points">
              <mxPoint x="689" y="179" />
            </Array>
          </mxGeometry>
        </mxCell>
        <mxCell id="5bSCLhhGmZURMwcGHP59-53" style="edgeStyle=orthogonalEdgeStyle;rounded=0;orthogonalLoop=1;jettySize=auto;html=1;exitX=0;exitY=0.75;exitDx=0;exitDy=0;entryX=1;entryY=0.75;entryDx=0;entryDy=0;fontSize=18;" edge="1" parent="5bSCLhhGmZURMwcGHP59-69" source="5bSCLhhGmZURMwcGHP59-46" target="5bSCLhhGmZURMwcGHP59-17">
          <mxGeometry relative="1" as="geometry" />
        </mxCell>
        <mxCell id="5bSCLhhGmZURMwcGHP59-54" value="" style="edgeStyle=orthogonalEdgeStyle;rounded=0;orthogonalLoop=1;jettySize=auto;html=1;fontSize=18;" edge="1" parent="5bSCLhhGmZURMwcGHP59-69" source="5bSCLhhGmZURMwcGHP59-46" target="5bSCLhhGmZURMwcGHP59-17">
          <mxGeometry relative="1" as="geometry" />
        </mxCell>
        <mxCell id="5bSCLhhGmZURMwcGHP59-55" style="edgeStyle=orthogonalEdgeStyle;rounded=0;orthogonalLoop=1;jettySize=auto;html=1;exitX=0;exitY=0.25;exitDx=0;exitDy=0;entryX=1;entryY=0.25;entryDx=0;entryDy=0;fontSize=18;" edge="1" parent="5bSCLhhGmZURMwcGHP59-69" source="5bSCLhhGmZURMwcGHP59-46" target="5bSCLhhGmZURMwcGHP59-17">
          <mxGeometry relative="1" as="geometry">
            <Array as="points">
              <mxPoint x="329" y="488" />
              <mxPoint x="329" y="431" />
            </Array>
          </mxGeometry>
        </mxCell>
        <mxCell id="5bSCLhhGmZURMwcGHP59-57" style="edgeStyle=orthogonalEdgeStyle;rounded=0;orthogonalLoop=1;jettySize=auto;html=1;exitX=0;exitY=0;exitDx=0;exitDy=0;entryX=1.009;entryY=0.112;entryDx=0;entryDy=0;entryPerimeter=0;fontSize=18;" edge="1" parent="5bSCLhhGmZURMwcGHP59-69" source="5bSCLhhGmZURMwcGHP59-46" target="5bSCLhhGmZURMwcGHP59-17">
          <mxGeometry relative="1" as="geometry" />
        </mxCell>
        <mxCell id="5bSCLhhGmZURMwcGHP59-46" value="&lt;i&gt;Demulti&lt;br&gt;plexer&lt;/i&gt;" style="whiteSpace=wrap;html=1;aspect=fixed;fontSize=18;" vertex="1" parent="5bSCLhhGmZURMwcGHP59-69">
          <mxGeometry x="371" y="468" width="80" height="80" as="geometry" />
        </mxCell>
        <mxCell id="5bSCLhhGmZURMwcGHP59-47" style="edgeStyle=orthogonalEdgeStyle;rounded=0;orthogonalLoop=1;jettySize=auto;html=1;exitX=0;exitY=0.5;exitDx=0;exitDy=0;entryX=1;entryY=0.5;entryDx=0;entryDy=0;fontSize=18;" edge="1" parent="5bSCLhhGmZURMwcGHP59-69" source="5bSCLhhGmZURMwcGHP59-9" target="5bSCLhhGmZURMwcGHP59-46">
          <mxGeometry relative="1" as="geometry" />
        </mxCell>
        <mxCell id="5bSCLhhGmZURMwcGHP59-68" value="&lt;i&gt;&lt;b&gt;&lt;font style=&quot;font-size: 24px&quot;&gt;Datapath&lt;/font&gt;&lt;/b&gt;&lt;/i&gt;" style="text;html=1;strokeColor=none;fillColor=none;align=center;verticalAlign=middle;whiteSpace=wrap;rounded=0;fontSize=18;" vertex="1" parent="5bSCLhhGmZURMwcGHP59-69">
          <mxGeometry x="385" y="20" width="60" height="30" as="geometry" />
        </mxCell>
      </root>
    </mxGraphModel>
  </diagram>
</mxfile>
